<svg width="25" height="25" viewBox="0 0 28 28" fill="none" xmlns="http://www.w3.org/2000/svg">
<path d="M17.5 25.6667V21C17.6623 19.5385 17.2432 18.0718 16.3333 16.9167C19.8333 16.9167 23.3333 14.5833 23.3333 10.5C23.4266 9.04166 23.0183 7.60666 22.1666 6.41666C22.4933 5.07499 22.4933 3.67499 22.1666 2.33333C22.1666 2.33333 21 2.33333 18.6666 4.08333C15.5866 3.49999 12.4133 3.49999 9.3333 4.08333C6.99996 2.33333 5.8333 2.33333 5.8333 2.33333C5.4833 3.67499 5.4833 5.07499 5.8333 6.41666C4.98381 7.60186 4.57151 9.04491 4.66663 10.5C4.66663 14.5833 8.16663 16.9167 11.6666 16.9167C11.2116 17.4883 10.8733 18.1417 10.675 18.8417C10.4766 19.5417 10.4183 20.2767 10.5 21V25.6667" stroke="#8C8D8E" stroke-width="2.5" stroke-linecap="round" stroke-linejoin="round"/>
<path d="M10.5 21C5.23837 23.3333 4.66671 18.6667 2.33337 18.6667" stroke="#8C8D8E" stroke-width="2.5" stroke-linecap="round" stroke-linejoin="round"/>
</svg>
