<svg width="25" height="25" viewBox="0 0 28 28" fill="none" xmlns="http://www.w3.org/2000/svg">
<path d="M3.5 16.3333H7C7.61884 16.3333 8.21233 16.5792 8.64992 17.0168C9.0875 17.4543 9.33333 18.0478 9.33333 18.6667V22.1667C9.33333 22.7855 9.0875 23.379 8.64992 23.8166C8.21233 24.2542 7.61884 24.5 7 24.5H5.83333C5.21449 24.5 4.621 24.2542 4.18342 23.8166C3.74583 23.379 3.5 22.7855 3.5 22.1667V14C3.5 11.2152 4.60625 8.54451 6.57538 6.57538C8.54451 4.60625 11.2152 3.5 14 3.5C16.7848 3.5 19.4555 4.60625 21.4246 6.57538C23.3938 8.54451 24.5 11.2152 24.5 14V22.1667C24.5 22.7855 24.2542 23.379 23.8166 23.8166C23.379 24.2542 22.7855 24.5 22.1667 24.5H21C20.3812 24.5 19.7877 24.2542 19.3501 23.8166C18.9125 23.379 18.6667 22.7855 18.6667 22.1667V18.6667C18.6667 18.0478 18.9125 17.4543 19.3501 17.0168C19.7877 16.5792 20.3812 16.3333 21 16.3333H24.5" stroke="#8C8D8E" stroke-width="2" stroke-linecap="round" stroke-linejoin="round"/>
</svg>
